<?xml version="1.0" standalone="no"?>
<!DOCTYPE svg PUBLIC "-//W3C//DTD SVG 20010904//EN"
 "http://www.w3.org/TR/2001/REC-SVG-20010904/DTD/svg10.dtd">
<svg version="1.0" xmlns="http://www.w3.org/2000/svg"
 width="1024.000000pt" height="1024.000000pt" viewBox="0 0 1024.000000 1024.000000"
 preserveAspectRatio="xMidYMid meet">

<g transform="translate(0.000000,1024.000000) scale(0.100000,-0.100000)"
fill="#7e1416" stroke="none">
<path d="M3630 10075 l0 -165 -330 0 -330 0 0 -165 0 -165 -330 0 -330 0 0
-165 0 -165 -330 0 -330 0 0 -165 0 -165 -165 0 -165 0 0 -165 0 -165 -165 0
-165 0 0 -165 0 -165 -165 0 -165 0 0 -495 0 -495 -165 0 -165 0 0 -330 0
-330 -165 0 -165 0 0 -1490 0 -1490 165 0 165 0 0 -330 0 -330 165 0 165 0 0
-495 0 -495 165 0 165 0 0 -165 0 -165 165 0 165 0 0 -165 0 -165 165 0 165 0
0 -165 0 -165 330 0 330 0 0 -165 0 -165 330 0 330 0 0 -165 0 -165 330 0 330
0 0 -165 0 -165 1490 0 1490 0 0 165 0 165 330 0 330 0 0 165 0 165 330 0 330
0 0 165 0 165 330 0 330 0 0 165 0 165 165 0 165 0 0 165 0 165 165 0 165 0 0
165 0 165 165 0 165 0 0 495 0 495 165 0 165 0 0 330 0 330 165 0 165 0 0
1490 0 1490 -165 0 -165 0 0 330 0 330 -165 0 -165 0 0 495 0 495 -165 0 -165
0 0 165 0 165 -165 0 -165 0 0 165 0 165 -165 0 -165 0 0 165 0 165 -330 0
-330 0 0 165 0 165 -330 0 -330 0 0 165 0 165 -330 0 -330 0 0 165 0 165
-1490 0 -1490 0 0 -165z m1320 -495 l0 -330 -165 0 -165 0 0 -165 0 -165 -660
0 -660 0 0 -165 0 -165 -165 0 -165 0 0 -165 0 -165 -330 0 -330 0 0 -165 0
-165 -165 0 -165 0 0 165 0 165 -165 0 -165 0 0 165 0 165 330 0 330 0 0 165
0 165 165 0 165 0 0 165 0 165 330 0 330 0 0 165 0 165 660 0 660 0 0 165 0
165 165 0 165 0 0 -330z m670 165 l0 -165 660 0 660 0 0 -165 0 -165 330 0
330 0 0 -165 0 -165 165 0 165 0 0 -165 0 -165 330 0 330 0 0 -165 0 -165
-165 0 -165 0 0 -165 0 -165 -165 0 -165 0 0 165 0 165 -330 0 -330 0 0 165 0
165 -165 0 -165 0 0 165 0 165 -660 0 -660 0 0 165 0 165 -165 0 -165 0 0 330
0 330 165 0 165 0 0 -165z m-670 -1650 l0 -165 170 0 170 0 0 165 0 165 165 0
165 0 0 -165 0 -165 -165 0 -165 0 0 -660 0 -660 165 0 165 0 0 -165 0 -165
330 0 330 0 0 165 0 165 330 0 330 0 0 165 0 165 165 0 165 0 0 330 0 330 165
0 165 0 0 -165 0 -165 165 0 165 0 0 -165 0 -165 -330 0 -330 0 0 -165 0 -165
-165 0 -165 0 0 -165 0 -165 -165 0 -165 0 0 -165 0 -165 -165 0 -165 0 0
-165 0 -165 165 0 165 0 0 -165 0 -165 660 0 660 0 0 165 0 165 165 0 165 0 0
-165 0 -165 -165 0 -165 0 0 -170 0 -170 165 0 165 0 0 -165 0 -165 -165 0
-165 0 0 165 0 165 -660 0 -660 0 0 -165 0 -165 -165 0 -165 0 0 -165 0 -165
165 0 165 0 0 -165 0 -165 165 0 165 0 0 -165 0 -165 165 0 165 0 0 -165 0
-165 330 0 330 0 0 -165 0 -165 -165 0 -165 0 0 -165 0 -165 -165 0 -165 0 0
330 0 330 -165 0 -165 0 0 165 0 165 -330 0 -330 0 0 165 0 165 -330 0 -330 0
0 -165 0 -165 -165 0 -165 0 0 -660 0 -660 165 0 165 0 0 -165 0 -165 -165 0
-165 0 0 165 0 165 -170 0 -170 0 0 -165 0 -165 -165 0 -165 0 0 165 0 165
165 0 165 0 0 660 0 660 -165 0 -165 0 0 165 0 165 -330 0 -330 0 0 -165 0
-165 -330 0 -330 0 0 -165 0 -165 -165 0 -165 0 0 -330 0 -330 -165 0 -165 0
0 165 0 165 -165 0 -165 0 0 165 0 165 330 0 330 0 0 165 0 165 165 0 165 0 0
165 0 165 165 0 165 0 0 165 0 165 165 0 165 0 0 165 0 165 -165 0 -165 0 0
165 0 165 -660 0 -660 0 0 -165 0 -165 -165 0 -165 0 0 165 0 165 165 0 165 0
0 170 0 170 -165 0 -165 0 0 165 0 165 165 0 165 0 0 -165 0 -165 660 0 660 0
0 165 0 165 165 0 165 0 0 165 0 165 -165 0 -165 0 0 165 0 165 -165 0 -165 0
0 165 0 165 -165 0 -165 0 0 165 0 165 -330 0 -330 0 0 165 0 165 165 0 165 0
0 165 0 165 165 0 165 0 0 -330 0 -330 165 0 165 0 0 -165 0 -165 330 0 330 0
0 -165 0 -165 330 0 330 0 0 165 0 165 165 0 165 0 0 660 0 660 -165 0 -165 0
0 165 0 165 165 0 165 0 0 -165z m-3630 -330 l0 -165 165 0 165 0 0 -330 0
-330 -165 0 -165 0 0 -660 0 -660 -165 0 -165 0 0 -165 0 -165 -330 0 -330 0
0 165 0 165 165 0 165 0 0 660 0 660 165 0 165 0 0 495 0 495 165 0 165 0 0
-165z m7930 -330 l0 -495 165 0 165 0 0 -660 0 -660 165 0 165 0 0 -165 0
-165 -330 0 -330 0 0 165 0 165 -165 0 -165 0 0 660 0 660 -165 0 -165 0 0
330 0 330 165 0 165 0 0 165 0 165 165 0 165 0 0 -495z m-8260 -2650 l0 -165
165 0 165 0 0 -660 0 -660 165 0 165 0 0 -330 0 -330 -165 0 -165 0 0 -165 0
-165 -165 0 -165 0 0 495 0 495 -165 0 -165 0 0 660 0 660 -165 0 -165 0 0
165 0 165 330 0 330 0 0 -165z m8920 0 l0 -165 -165 0 -165 0 0 -660 0 -660
-165 0 -165 0 0 -495 0 -495 -165 0 -165 0 0 165 0 165 -165 0 -165 0 0 330 0
330 165 0 165 0 0 660 0 660 165 0 165 0 0 165 0 165 330 0 330 0 0 -165z
m-7600 -2640 l0 -165 330 0 330 0 0 -165 0 -165 165 0 165 0 0 -165 0 -165
660 0 660 0 0 -165 0 -165 165 0 165 0 0 -330 0 -330 -165 0 -165 0 0 165 0
165 -660 0 -660 0 0 165 0 165 -330 0 -330 0 0 165 0 165 -165 0 -165 0 0 165
0 165 -330 0 -330 0 0 165 0 165 165 0 165 0 0 165 0 165 165 0 165 0 0 -165z
m5950 0 l0 -165 165 0 165 0 0 -165 0 -165 -330 0 -330 0 0 -165 0 -165 -165
0 -165 0 0 -165 0 -165 -330 0 -330 0 0 -165 0 -165 -660 0 -660 0 0 -165 0
-165 -165 0 -165 0 0 330 0 330 165 0 165 0 0 165 0 165 660 0 660 0 0 165 0
165 165 0 165 0 0 165 0 165 330 0 330 0 0 165 0 165 165 0 165 0 0 -165z"/>
</g>
</svg>
