<?xml version="1.0" standalone="no"?>
<!DOCTYPE svg PUBLIC "-//W3C//DTD SVG 20010904//EN"
 "http://www.w3.org/TR/2001/REC-SVG-20010904/DTD/svg10.dtd">
<svg version="1.0" xmlns="http://www.w3.org/2000/svg"
 width="1024.000000pt" height="1024.000000pt" viewBox="0 0 1024.000000 1024.000000"
 preserveAspectRatio="xMidYMid meet">
<metadata>
Created by potrace 1.11, written by Peter Selinger 2001-2013
</metadata>
<g transform="translate(0.000000,1024.000000) scale(0.100000,-0.100000)"
fill="#000000" stroke="none">
<path d="M4031 9970 c-431 -81 -795 -153 -810 -160 -14 -6 -305 -176 -646
-376 l-621 -364 -505 -541 c-277 -298 -526 -566 -553 -596 -43 -48 -81 -123
-293 -581 l-243 -525 -152 -706 c-108 -503 -158 -714 -172 -733 -17 -24 -18
-31 -7 -55 10 -21 151 -1237 151 -1299 0 -7 8 -20 17 -29 9 -9 126 -310 260
-667 133 -358 250 -663 260 -677 9 -14 208 -265 442 -556 234 -292 431 -538
436 -547 12 -19 679 -590 806 -690 47 -36 101 -75 120 -87 19 -11 268 -126
554 -255 l519 -236 675 -91 676 -90 605 50 606 51 584 199 c322 110 605 207
630 216 25 9 61 31 80 50 26 24 781 537 1163 790 22 14 833 1118 859 1168 11
23 146 314 299 647 l279 604 40 688 41 688 -130 682 -131 683 -240 585 c-132
322 -240 593 -240 602 0 16 -770 933 -827 986 -13 12 -33 22 -43 22 -19 0
-1072 751 -1118 797 -13 13 -34 23 -48 23 -13 0 -347 99 -742 220 l-717 220
-515 20 c-283 11 -526 20 -540 19 -14 -1 -378 -68 -809 -149z m1189 43 c112
-6 102 -7 -360 -44 -261 -21 -484 -38 -495 -36 -11 1 90 23 225 49 266 51 278
51 630 31z m1021 -300 c213 -125 384 -229 379 -231 -10 -4 -1065 166 -1096
176 -17 6 3 29 145 164 146 138 167 155 175 138 5 -10 183 -121 397 -247z
m-718 98 c-115 -111 -139 -129 -180 -139 -45 -11 -70 -6 -441 81 -217 50 -385
94 -375 96 18 4 1058 88 1103 89 21 1 2 -21 -107 -127z m1120 -56 c315 -97
576 -177 581 -178 5 -2 -54 -37 -130 -79 -112 -61 -146 -75 -169 -70 -22 4
-844 477 -864 498 -10 9 36 -4 582 -171z m-2684 101 c-8 -9 -1083 -455 -1086
-452 -9 9 266 255 322 289 60 35 83 41 397 101 324 62 376 71 367 62z m688
-138 c238 -56 431 -103 430 -105 -2 -2 -1057 -245 -1309 -302 l-38 -9 48 54
c188 212 419 463 427 463 6 1 204 -45 442 -101z m-624 48 c-10 -13 -112 -128
-228 -255 l-210 -230 -335 6 c-184 3 -342 9 -352 12 -10 4 206 99 560 248 318
133 579 242 580 242 2 1 -5 -10 -15 -23z m1245 -228 c-8 -13 -111 -173 -228
-355 -117 -183 -218 -333 -223 -333 -23 0 -1035 365 -1024 369 23 9 1452 339
1471 340 17 1 17 -1 4 -21z m939 -86 c365 -60 665 -111 668 -114 4 -3 -85
-143 -197 -311 l-203 -304 -455 399 c-487 427 -500 438 -485 438 6 0 308 -49
672 -108z m-333 -324 c264 -231 485 -424 489 -428 5 -4 -2 -6 -15 -4 -13 2
-336 34 -718 70 -382 36 -697 68 -699 70 -3 3 451 714 458 714 1 0 220 -190
485 -422z m1872 86 c217 -175 393 -318 391 -320 -2 -2 -248 104 -546 235 -365
161 -538 242 -529 247 35 23 274 153 282 153 4 1 185 -141 402 -315z m-5048
155 c-77 -75 -90 -84 -178 -115 -52 -19 -113 -42 -135 -50 -22 -9 -37 -13 -34
-9 7 6 420 253 427 254 2 1 -34 -35 -80 -80z m4649 -536 c209 -247 405 -478
436 -515 l57 -66 -633 210 c-347 116 -635 213 -639 217 -8 7 382 600 394 601
3 0 177 -201 385 -447z m551 62 l473 -208 -24 -26 c-224 -246 -372 -407 -378
-409 -6 -3 -829 962 -829 972 0 3 64 -24 143 -58 78 -35 355 -156 615 -271z
m-4486 296 l88 -6 -562 -380 c-309 -209 -567 -384 -574 -388 -16 -9 -25 -36
146 418 73 193 137 356 142 363 8 9 82 11 342 6 182 -3 370 -9 418 -13z m781
-219 l527 -188 -602 -376 c-452 -282 -604 -372 -606 -360 -1 10 31 257 73 551
41 294 75 541 75 548 0 7 1 13 3 13 1 0 239 -85 530 -188z m-633 124 c0 -19
-151 -1090 -154 -1093 -4 -4 -1046 292 -1046 297 0 6 1182 808 1193 809 4 1 7
-5 7 -13z m-1205 -15 c-11 -10 -195 -159 -410 -331 -214 -173 -448 -361 -520
-419 -95 -76 -118 -91 -84 -55 26 27 180 193 344 369 l298 320 186 67 c102 37
190 67 196 67 5 1 1 -7 -10 -18z m140 -28 c-4 -10 -65 -173 -137 -363 -71
-190 -132 -347 -134 -349 -6 -6 -705 -81 -722 -78 -12 2 975 805 992 806 4 1
5 -7 1 -16z m2563 -1031 c83 -244 145 -442 139 -440 -7 3 -373 87 -814 189
-442 101 -803 186 -803 189 0 3 278 179 618 391 l617 385 46 -136 c26 -74 114
-334 197 -578z m555 653 c371 -36 685 -65 698 -65 19 0 -83 -106 -491 -515
l-515 -515 -41 123 c-23 67 -112 328 -197 580 -109 320 -151 457 -141 457 7 0
317 -29 687 -65z m2998 -72 c46 -54 108 -127 138 -163 62 -72 50 -64 -129 101
-69 62 -124 118 -122 124 4 11 23 35 27 35 2 0 40 -44 86 -97z m57 -488 c138
-264 254 -488 258 -498 8 -21 -3 -14 -524 330 l-363 240 188 206 c103 113 188
204 189 203 1 0 114 -217 252 -481z m-2004 -90 c111 -308 216 -599 233 -646
l31 -85 -376 61 c-208 34 -552 90 -765 125 l-389 63 524 524 c287 287 527 522
532 520 4 -1 99 -255 210 -562z m582 328 l651 -218 -428 -403 c-236 -221 -434
-405 -441 -407 -12 -4 -109 257 -430 1153 -31 86 -34 102 -20 98 9 -3 310
-104 668 -223z m1729 -263 c165 -151 301 -277 303 -281 5 -12 -191 -290 -198
-282 -6 6 -410 773 -462 878 -7 14 0 11 23 -11 19 -17 169 -154 334 -304z
m-6867 100 c-135 -155 -974 -1087 -976 -1084 -6 4 210 1028 219 1038 4 5 182
28 396 51 213 23 392 43 396 44 5 0 -11 -21 -35 -49z m717 -121 c275 -78 506
-145 513 -149 9 -4 -173 -173 -549 -508 -310 -276 -565 -500 -567 -498 -8 9
83 1296 93 1296 5 0 235 -64 510 -141z m-658 -571 c-24 -351 -46 -640 -49
-644 -4 -3 -226 17 -495 45 -269 28 -492 51 -496 51 -4 0 237 272 536 605 298
332 543 599 544 592 2 -7 -17 -299 -40 -649z m-954 629 c-46 -77 -518 -806
-520 -804 -2 2 50 117 115 255 l117 252 144 155 c136 147 163 173 144 142z
m7373 -411 l421 -277 -186 -389 c-102 -214 -188 -386 -192 -382 -5 6 -552
1325 -575 1386 -6 14 7 9 52 -21 32 -21 248 -164 480 -317z m-351 -338 c153
-370 284 -688 292 -706 l13 -32 -32 13 c-853 358 -1405 590 -1410 593 -8 5
837 804 850 804 4 0 133 -303 287 -672z m-7125 86 c-55 -263 -104 -486 -109
-494 -5 -10 -93 -34 -254 -71 -152 -34 -243 -51 -239 -43 21 38 697 1091 699
1089 2 -1 -42 -217 -97 -481z m3372 189 c379 -87 688 -160 687 -163 0 -3 -287
-215 -637 -471 -506 -370 -638 -463 -644 -450 -4 9 -89 300 -188 646 -100 347
-183 637 -186 646 -4 14 16 12 138 -17 79 -18 452 -104 830 -191z m-866 -476
c105 -364 190 -663 189 -664 -1 -2 -339 67 -751 151 -412 85 -758 155 -768
157 -13 3 147 151 556 515 315 281 575 509 578 507 3 -2 91 -302 196 -666z
m5904 63 c100 -245 187 -456 192 -470 7 -18 -1 -13 -29 20 -21 24 -145 168
-276 320 -131 151 -245 287 -252 301 -13 24 -9 32 77 158 50 73 94 129 98 124
4 -4 90 -208 190 -453z m-4022 -520 c116 -393 210 -715 209 -716 -1 0 -397
105 -879 235 -695 186 -875 238 -865 248 38 38 1312 962 1318 955 3 -4 101
-329 217 -722z m680 603 c397 -64 722 -121 722 -125 0 -7 -1088 -1151 -1100
-1156 -3 -1 -98 309 -210 690 -112 381 -206 699 -208 707 -4 11 3 13 34 8 21
-4 364 -59 762 -124z m3105 -709 c115 -405 206 -738 203 -741 -2 -2 -182 154
-399 347 l-395 352 140 292 c76 160 160 335 185 389 25 53 49 97 52 97 4 0
100 -331 214 -736z m219 246 c140 -162 258 -301 262 -308 5 -8 -29 -140 -85
-333 -64 -217 -96 -314 -101 -302 -4 10 -85 290 -178 623 -94 333 -173 614
-176 625 -8 27 -18 38 278 -305z m-1615 -44 l661 -278 -241 -272 c-132 -149
-355 -400 -495 -558 -140 -159 -258 -288 -261 -288 -4 0 -75 253 -159 563 -84
309 -190 700 -235 868 l-83 307 75 -33 c42 -17 374 -157 738 -309z m-664 -561
c130 -478 235 -871 234 -872 -2 -2 -1553 549 -1590 565 -16 6 75 106 545 599
309 325 566 588 569 584 4 -3 113 -397 242 -876z m-5613 554 c283 -29 516 -54
518 -55 2 -1 -181 -248 -405 -548 -316 -424 -410 -543 -415 -529 -4 10 -55
268 -113 573 -58 305 -108 567 -111 583 -3 15 -2 27 3 27 4 1 240 -23 523 -51z
m-661 34 c0 -5 -114 -235 -254 -513 -245 -488 -254 -503 -254 -455 -1 116 29
858 34 864 6 5 432 107 463 110 6 0 12 -2 11 -6z m166 -663 c58 -305 107 -564
110 -575 4 -20 1 -20 -378 14 -210 18 -383 35 -385 36 -2 2 120 249 270 549
150 300 274 543 275 539 1 -5 50 -258 108 -563z m1894 400 c405 -83 744 -154
754 -158 16 -6 -89 -120 -605 -658 -342 -359 -624 -651 -625 -650 -1 1 -61
352 -133 781 -72 429 -133 792 -136 808 -3 15 -2 27 2 27 4 0 338 -68 743
-150z m-699 -704 c72 -428 129 -781 126 -783 -6 -7 -1081 450 -1081 459 0 7
819 1107 822 1104 1 -1 61 -352 133 -780z m6445 -256 c68 -454 121 -827 119
-829 -3 -3 -1263 526 -1272 534 -2 2 227 264 510 582 390 440 514 574 516 558
2 -11 59 -391 127 -845z m-8401 391 c-8 -217 -15 -395 -17 -396 -1 -1 -39 -30
-85 -64 -45 -34 -82 -58 -82 -54 -1 11 194 913 196 910 1 -1 -5 -179 -12 -396z
m8789 36 c207 -185 377 -340 377 -344 0 -9 -544 -912 -547 -909 -2 1 -54 351
-118 777 -63 426 -117 790 -121 809 -5 33 -5 34 13 19 10 -9 188 -167 396
-352z m-4318 98 c468 -125 854 -231 858 -235 6 -5 -578 -621 -1267 -1338 l-22
-22 -229 897 c-126 494 -231 907 -233 917 -4 15 -1 18 19 14 13 -3 407 -107
874 -233z m5105 -323 c56 -294 100 -536 97 -538 -6 -6 -387 453 -387 466 0 10
165 580 177 610 3 8 7 11 9 5 1 -5 49 -250 104 -543z m-5860 -375 c124 -485
223 -883 220 -885 -5 -2 -1603 442 -1679 466 -21 7 30 63 600 659 343 358 626
649 629 646 3 -2 106 -401 230 -886z m2668 93 c375 -134 682 -246 681 -249 -1
-10 -1172 -966 -1183 -966 -5 0 -96 345 -201 767 l-192 767 106 -38 c58 -21
413 -147 789 -281z m-791 -477 c105 -422 191 -769 189 -770 -4 -4 -1611 208
-1630 215 -15 6 91 122 610 664 346 362 631 657 634 657 3 1 91 -344 197 -766z
m3892 295 c94 -115 171 -211 171 -215 0 -3 -57 -169 -127 -367 -121 -339 -128
-358 -135 -321 -5 22 -28 270 -53 550 -24 281 -47 528 -50 550 -7 49 -25 67
194 -197z m-8956 166 c297 -27 318 -30 313 -47 -8 -32 -441 -1047 -446 -1047
-3 0 -69 255 -147 566 l-141 567 51 -6 c29 -2 195 -18 370 -33z m8731 -623
c31 -343 55 -625 53 -627 -1 -1 -145 97 -319 217 l-316 220 215 357 c119 196
235 387 257 425 32 52 42 63 48 50 3 -10 32 -299 62 -642z m-9319 78 c-29
-288 -55 -537 -57 -554 -2 -16 -27 183 -55 444 -29 261 -52 476 -50 477 11 12
213 161 214 160 2 -2 -22 -238 -52 -527z m1653 216 c270 -116 492 -212 492
-215 0 -4 -155 -268 -344 -589 -237 -400 -346 -576 -350 -564 -3 10 -91 374
-196 808 -105 435 -192 795 -195 802 -2 8 16 3 48 -10 29 -13 274 -117 545
-232z m-478 -619 c105 -435 189 -793 188 -797 -5 -11 -853 532 -850 544 2 7
106 252 230 545 160 374 229 527 234 515 4 -10 93 -373 198 -807z m-800 -231
c0 -9 -362 -217 -368 -211 -1 2 25 264 58 582 33 319 60 588 61 599 1 18 248
-947 249 -970z m7535 625 c341 -144 623 -265 627 -269 4 -3 -208 -222 -472
-486 -264 -264 -480 -477 -480 -473 0 3 -70 340 -155 747 -85 407 -155 743
-155 746 0 4 3 4 8 2 4 -3 286 -123 627 -267z m-720 218 c18 -77 314 -1503
312 -1504 -1 -1 -333 119 -737 267 -404 148 -745 272 -757 276 -18 7 61 76
570 495 326 268 595 487 599 487 4 1 10 -9 13 -21z m-4040 -489 c451 -126 829
-233 839 -237 17 -7 -61 -94 -544 -608 -309 -329 -568 -605 -574 -612 -9 -9
-80 181 -311 839 -165 468 -301 855 -303 860 -2 4 14 3 35 -3 21 -5 407 -113
858 -239z m6546 -276 c-15 -249 -29 -454 -32 -456 -2 -3 -45 46 -96 108 l-92
113 122 345 c67 190 123 344 123 344 1 -1 -11 -205 -25 -454z m-7039 -893 c58
-162 104 -296 103 -297 -4 -7 -1255 463 -1255 471 0 7 586 1005 658 1120 l25
40 182 -520 c101 -285 230 -652 287 -814z m6370 868 c175 -121 320 -224 323
-229 3 -5 -178 -247 -402 -538 -248 -323 -409 -524 -411 -513 -1 9 31 348 73
752 41 404 75 741 75 748 0 17 -24 33 342 -220z m-513 -563 c-43 -423 -80
-775 -81 -782 -2 -6 -176 117 -388 274 -212 156 -394 291 -405 299 -19 13 7
41 465 499 266 266 485 483 486 482 1 -1 -33 -348 -77 -772z m-3554 480 c446
-59 818 -109 828 -113 14 -6 -111 -134 -622 -636 -351 -345 -642 -629 -646
-630 -6 -1 -383 1448 -385 1477 0 4 3 7 8 7 4 0 372 -47 817 -105z m-716 -705
c105 -409 188 -746 186 -749 -7 -6 -1467 309 -1478 319 -5 4 240 271 543 594
304 323 554 585 556 584 2 -2 89 -339 193 -748z m-3824 608 c4 -18 63 -278
130 -578 68 -300 122 -546 121 -548 -4 -4 -645 913 -648 928 -2 10 360 227
384 229 3 1 10 -14 13 -31z m556 -310 l386 -244 -280 -347 c-154 -192 -281
-346 -284 -344 -2 3 -66 279 -141 615 l-138 610 36 -23 c19 -12 209 -132 421
-267z m5736 -35 c566 -207 730 -271 720 -280 -36 -35 -1221 -833 -1227 -826
-4 4 -57 307 -119 673 -62 366 -115 673 -117 683 -3 9 -2 17 3 17 4 0 337
-120 740 -267z m-718 -444 c66 -382 117 -696 115 -698 -2 -2 -348 25 -769 60
l-765 64 647 637 c356 350 649 635 651 634 1 -2 56 -316 121 -697z m3551 530
l92 -112 -14 -31 c-8 -17 -126 -275 -263 -573 -137 -298 -250 -541 -251 -540
-3 3 338 1367 341 1367 2 0 44 -50 95 -111z m-381 -644 c-88 -352 -162 -641
-163 -643 -5 -4 -441 278 -444 288 -3 8 758 1003 764 997 1 -1 -69 -290 -157
-642z m-8737 -40 c145 -209 268 -385 272 -392 8 -15 -212 -129 -224 -116 -5 6
-207 542 -346 918 -11 32 11 1 298 -410z m1218 -341 c121 -356 218 -649 216
-651 -4 -4 -1017 572 -1019 580 -2 7 576 727 581 723 1 -2 102 -295 222 -652z
m504 426 c333 -124 606 -228 606 -232 0 -9 -779 -838 -788 -838 -7 0 -442
1276 -442 1294 0 4 4 6 9 4 5 -1 281 -104 615 -228z m5186 -576 c-94 -407
-172 -742 -173 -746 -2 -8 -912 620 -912 630 0 6 1248 860 1253 857 2 -2 -74
-335 -168 -741z m667 460 c214 -157 391 -289 396 -293 6 -6 -1060 -819 -1120
-854 -8 -5 -9 1 -3 25 5 18 79 337 165 708 164 710 161 700 170 700 2 0 179
-129 392 -286z m-4318 -321 c399 -86 727 -158 729 -159 4 -2 -685 -972 -708
-997 -15 -17 -36 17 -380 625 -200 354 -370 653 -378 666 -11 17 -11 22 -1 22
7 0 339 -71 738 -157z m-467 -521 c207 -367 373 -668 370 -669 -8 -3 -1551
462 -1558 470 -6 5 796 866 806 866 3 0 174 -300 382 -667z m5581 288 c108
-69 192 -128 189 -131 -44 -40 -984 -810 -987 -807 -1 1 108 258 244 569 l246
566 56 -36 c31 -20 145 -92 252 -161z m-7776 -430 c146 -289 256 -516 245
-505 -14 14 -653 807 -734 912 -7 9 20 27 99 67 59 30 112 54 116 53 5 -1 128
-239 274 -527z m7320 513 c-3 -5 -114 -260 -247 -568 -134 -308 -244 -562
-246 -563 -4 -6 -604 303 -601 310 2 6 1089 828 1095 828 2 0 1 -3 -1 -7z
m-3007 -73 c393 -33 720 -61 726 -63 6 -1 -132 -236 -308 -522 -175 -286 -329
-537 -341 -557 l-22 -38 -390 606 c-454 706 -409 634 -393 634 7 0 334 -27
728 -60z m-3706 -395 c126 -71 231 -135 233 -141 3 -9 -438 -498 -442 -491 -1
1 -122 239 -269 529 l-266 527 257 -147 c142 -80 361 -205 487 -277z m3268
-187 c213 -331 386 -603 385 -604 -2 -2 -1495 154 -1515 158 -11 3 724 1048
737 1048 3 0 180 -271 393 -602z m1403 -360 c-428 -120 -780 -216 -783 -214
-3 4 614 1020 640 1053 6 8 142 -81 465 -304 l456 -316 -778 -219z m2513 524
c-7 -10 -132 -179 -277 -376 -192 -260 -268 -356 -280 -353 -156 44 -241 72
-241 78 0 7 798 669 807 669 2 0 -2 -8 -9 -18z m-5978 -423 c421 -127 766
-232 767 -233 1 -1 -134 -115 -300 -253 -166 -137 -330 -273 -363 -301 l-62
-52 -408 522 c-480 612 -442 562 -418 554 11 -3 363 -110 784 -237z m-495
-302 c224 -286 405 -520 403 -522 -2 -2 -277 135 -611 304 l-608 308 198 216
c109 119 201 215 205 214 4 -1 190 -235 413 -520z m4693 281 c-19 -24 -191
-240 -382 -481 -192 -241 -354 -436 -360 -434 -9 4 -560 350 -756 475 l-54 35
789 222 c435 123 792 224 794 224 2 1 -12 -18 -31 -41z m446 -112 l280 -144
-35 -15 c-19 -8 -304 -141 -633 -296 -330 -154 -602 -279 -604 -277 -7 7 689
876 702 876 6 0 137 -65 290 -144z m-6004 -181 c13 -14 21 -25 18 -25 -2 0
-15 11 -28 25 -13 14 -21 25 -18 25 2 0 15 -11 28 -25z m2583 -387 c202 -226
366 -412 365 -414 -4 -3 -1429 193 -1433 198 -3 2 -1 17 3 33 6 22 91 98 348
311 186 156 341 283 344 283 3 0 170 -185 373 -411z m513 337 c395 -42 722
-76 726 -78 3 -1 -158 -158 -359 -349 l-365 -346 -361 401 c-198 221 -369 412
-380 425 -20 22 -20 22 -1 22 11 0 344 -34 740 -75z m3496 18 c54 -16 98 -31
98 -34 0 -3 -156 -111 -347 -239 -192 -129 -341 -225 -333 -213 19 27 473 512
480 513 3 0 49 -12 102 -27z m-313 -60 c-25 -27 -180 -192 -344 -368 -164
-176 -310 -328 -324 -337 -25 -16 -34 -14 -303 65 -152 45 -275 83 -274 85 5
4 1280 601 1286 602 2 0 -16 -21 -41 -47z m-5047 -514 c-4 -4 -91 -26 -194
-50 l-187 -43 -198 191 c-109 106 -247 242 -308 303 l-110 112 502 -253 c276
-140 498 -257 495 -260z m3069 199 c336 -212 367 -234 342 -240 -36 -10 -1375
-159 -1380 -154 -6 5 649 626 660 626 5 0 176 -105 378 -232z m-2441 -538
c230 -151 417 -276 416 -277 0 -1 -98 12 -216 28 l-215 29 -437 198 c-240 108
-435 198 -434 200 4 4 376 90 411 95 17 2 36 4 44 3 7 -1 201 -125 431 -276z
m534 125 c341 -47 621 -86 622 -88 1 -1 -128 -71 -287 -156 l-290 -153 -127
83 c-182 119 -606 400 -612 406 -3 3 13 2 35 -1 22 -4 319 -45 659 -91z m2371
86 c-13 -11 -693 -494 -720 -510 -17 -11 -72 10 -417 160 -219 95 -395 175
-392 178 3 3 346 45 762 92 416 48 761 87 767 88 6 1 6 -2 0 -8z m437 -63
c137 -40 245 -75 240 -79 -4 -4 -248 -88 -542 -188 -475 -161 -545 -182 -620
-188 -47 -3 -82 -2 -78 2 16 17 734 524 743 525 6 0 121 -32 257 -72z m-1704
-329 c250 -108 348 -156 335 -160 -10 -4 -164 -19 -343 -33 l-325 -25 -307 42
-308 42 278 148 c162 86 285 146 297 144 11 -2 179 -73 373 -158z"/>
</g>
</svg>
